<svg width="547" height="385" viewBox="0 0 547 385" fill="none" xmlns="http://www.w3.org/2000/svg">
<g clip-path="url(#clip0_98_415)">
<path d="M215.097 241.616C215.265 240.471 215.181 239.303 214.849 238.194C214.516 237.086 213.945 236.063 213.175 235.199C212.405 234.335 211.454 233.65 210.391 233.192C209.327 232.735 208.176 232.516 207.018 232.551L156.285 181.283L146.263 195.286L199.283 241.278C199.472 243.217 200.365 245.021 201.795 246.346C203.224 247.671 205.09 248.426 207.04 248.467C208.989 248.509 210.886 247.835 212.371 246.572C213.856 245.309 214.826 243.546 215.097 241.616Z" fill="#FFB8B8"/>
<path d="M191.065 212.013L178.116 224.941C177.496 225.556 176.658 225.903 175.784 225.907C174.91 225.91 174.07 225.57 173.445 224.959L138.062 190.191C136.838 188.989 135.865 187.556 135.2 185.976C134.534 184.395 134.188 182.699 134.182 180.984C134.176 179.269 134.511 177.571 135.166 175.986C135.822 174.401 136.785 172.962 138 171.752C139.215 170.541 140.659 169.584 142.247 168.934C143.834 168.285 145.535 167.957 147.251 167.969C148.967 167.98 150.663 168.332 152.242 169.003C153.82 169.674 155.25 170.651 156.449 171.878L191.094 207.35C191.702 207.976 192.039 208.815 192.034 209.687C192.028 210.559 191.68 211.395 191.065 212.013Z" fill="white"/>
<path d="M145.652 148.557C155.653 148.557 163.762 140.453 163.762 130.456C163.762 120.46 155.653 112.356 145.652 112.356C135.65 112.356 127.542 120.46 127.542 130.456C127.542 140.453 135.65 148.557 145.652 148.557Z" fill="#FFB8B8"/>
<path d="M84.458 347.361L89.0436 355.147L121.275 341.175L114.506 329.683L84.458 347.361Z" fill="#FFB8B8"/>
<path d="M85.8323 343.879L94.8629 359.213C95.6186 360.496 96.1145 361.916 96.3213 363.391C96.5282 364.866 96.4424 366.367 96.0688 367.808C95.6953 369.25 95.0413 370.604 94.1443 371.792C93.2472 372.981 92.1246 373.982 90.8406 374.737L90.5229 374.924L75.7373 349.818L85.8323 343.879Z" fill="#141111"/>
<path d="M137.589 375.412H146.629L150.929 340.562L137.588 340.563L137.589 375.412Z" fill="#FFB8B8"/>
<path d="M135.284 372.462L153.086 372.461H153.087C154.577 372.461 156.052 372.754 157.428 373.324C158.805 373.894 160.056 374.729 161.109 375.782C162.163 376.835 162.998 378.085 163.569 379.461C164.139 380.837 164.432 382.311 164.432 383.8V384.169L135.284 384.17L135.284 372.462Z" fill="#141111"/>
<path d="M101.247 354.298C100.726 354.298 100.213 354.176 99.7491 353.941C99.2848 353.707 98.8824 353.366 98.5744 352.947L89.8562 341.113C89.5902 340.752 89.4002 340.34 89.2977 339.904C89.1952 339.468 89.1824 339.015 89.2599 338.573C89.3374 338.132 89.5036 337.71 89.7487 337.335C89.9937 336.959 90.3123 336.637 90.6853 336.389L129.48 310.491L106.072 248.973L156.13 253.102L157.816 305.967C157.974 310.781 156.82 315.548 154.476 319.757C152.132 323.966 148.687 327.459 144.51 329.862L102.904 353.852C102.401 354.144 101.829 354.298 101.247 354.298Z" fill="#141111"/>
<path d="M137.863 368.337C137.004 368.335 136.18 368.001 135.562 367.405C134.945 366.808 134.583 365.996 134.553 365.138L132.718 313.638L155.435 312.442L153.626 364.312C153.599 365.134 153.267 365.916 152.695 366.507C152.122 367.097 151.35 367.453 150.529 367.506L138.088 368.33C138.013 368.335 137.937 368.337 137.863 368.337Z" fill="#141111"/>
<path d="M161.923 263.329C156.144 263.329 135.956 256.831 128.948 254.516C127.9 255.354 122.14 259.658 115.417 258.872C111.269 258.385 107.617 256.038 104.562 251.896C97.8178 242.747 106.148 203.514 114.324 172.212C115.963 165.884 119.993 160.439 125.566 157.019C131.139 153.6 137.821 152.473 144.208 153.876C148.837 154.898 153.089 157.189 156.487 160.493C159.885 163.797 162.294 167.982 163.444 172.579C164.983 178.841 163.659 186.208 162.692 191.588C162.237 194.117 161.878 196.115 162.001 197.096C162.475 200.89 165.112 260.395 163.417 262.936C163.236 263.206 162.714 263.329 161.923 263.329Z" fill="white"/>
<path d="M140.78 263.434C141.709 262.743 142.475 261.857 143.024 260.838C143.573 259.819 143.892 258.692 143.958 257.536C144.024 256.381 143.836 255.225 143.407 254.15C142.978 253.075 142.318 252.107 141.474 251.315L141.832 179.208L124.84 182.036L129.831 252.025C128.593 253.53 127.95 255.437 128.025 257.384C128.099 259.332 128.886 261.184 130.235 262.59C131.585 263.997 133.404 264.859 135.347 265.015C137.29 265.17 139.223 264.608 140.78 263.434Z" fill="#FFB8B8"/>
<path d="M144.71 225.515H126.408C125.534 225.513 124.696 225.167 124.075 224.552C123.454 223.937 123.1 223.103 123.09 222.229L122.64 172.638C122.625 170.923 122.949 169.222 123.596 167.634C124.242 166.045 125.197 164.6 126.405 163.383C127.614 162.166 129.052 161.2 130.636 160.541C132.22 159.883 133.919 159.545 135.635 159.547C137.351 159.549 139.049 159.891 140.632 160.554C142.214 161.216 143.65 162.185 144.856 163.405C146.061 164.626 147.012 166.073 147.655 167.663C148.297 169.253 148.618 170.955 148.598 172.669L148.028 222.237C148.015 223.109 147.66 223.941 147.039 224.554C146.419 225.167 145.582 225.512 144.71 225.515Z" fill="white"/>
<path d="M141.04 148.482C132.749 148.497 124.926 141.946 123.489 133.784C122.975 130.578 123.207 127.296 124.167 124.194C125.21 120.662 126.998 117.395 129.411 114.612C131.824 111.83 134.806 109.597 138.155 108.064C141.505 106.53 145.144 105.733 148.829 105.724C152.513 105.716 156.156 106.497 159.512 108.015C161.73 109.019 163.915 110.459 164.931 112.671C165.947 114.883 165.311 117.974 163.089 118.969C161.637 119.619 159.815 119.3 158.527 120.233C156.677 121.574 157.153 124.427 157.979 126.557C158.805 128.687 159.74 131.264 158.355 133.081C157.064 134.774 154.485 134.722 152.453 134.084C150.421 133.447 148.415 132.38 146.297 132.597C143.207 132.913 140.987 135.985 140.576 139.062C140.165 142.139 141.132 145.215 142.088 148.169L141.04 148.482Z" fill="#141111"/>
<path d="M367.656 166.955C367.656 117.456 407.804 0 457.328 0C506.852 0 547 117.456 547 166.955C547 190.724 537.552 213.521 520.736 230.328C503.919 247.136 481.111 256.579 457.328 256.579C433.546 256.579 410.737 247.136 393.921 230.328C377.104 213.521 367.656 190.724 367.656 166.955Z" fill="white"/>
<path d="M457.328 385C457.133 385 456.945 384.922 456.807 384.784C456.669 384.646 456.591 384.458 456.591 384.263V75.2682C456.591 75.0728 456.669 74.8853 456.807 74.7471C456.945 74.6089 457.133 74.5312 457.328 74.5312C457.524 74.5312 457.711 74.6089 457.85 74.7471C457.988 74.8853 458.066 75.0728 458.066 75.2682V384.263C458.066 384.458 457.988 384.646 457.85 384.784C457.711 384.922 457.524 385 457.328 385Z" fill="#525252"/>
<path d="M457.328 134.922C457.231 134.922 457.135 134.903 457.046 134.866C456.956 134.829 456.875 134.774 456.807 134.706L421.315 99.233C421.178 99.0945 421.101 98.9075 421.102 98.7128C421.103 98.5182 421.18 98.3317 421.318 98.1941C421.456 98.0565 421.642 97.9789 421.837 97.9783C422.032 97.9777 422.219 98.0541 422.357 98.1909L457.849 133.664C457.953 133.767 458.023 133.898 458.051 134.041C458.08 134.184 458.065 134.332 458.009 134.467C457.953 134.602 457.859 134.717 457.738 134.798C457.616 134.879 457.474 134.922 457.328 134.922Z" fill="#525252"/>
<path d="M457.328 196.333C457.182 196.333 457.04 196.29 456.919 196.209C456.797 196.128 456.703 196.013 456.647 195.878C456.591 195.743 456.577 195.595 456.605 195.452C456.633 195.309 456.704 195.178 456.807 195.075L516.244 135.668C516.383 135.532 516.57 135.455 516.765 135.456C516.959 135.457 517.146 135.534 517.284 135.672C517.421 135.809 517.499 135.996 517.5 136.19C517.5 136.385 517.424 136.572 517.287 136.71L457.85 196.117C457.781 196.185 457.7 196.24 457.61 196.277C457.521 196.314 457.425 196.333 457.328 196.333Z" fill="#525252"/>
<path d="M209.17 241.197C220.934 238.539 234.262 247.736 234.675 260.084C234.791 263.556 233.773 267.204 231.099 269.566C228.892 271.517 225.607 272.5 222.753 271.547C217.262 269.712 216.969 262.065 219.915 257.98C223.903 252.449 231.805 251.505 238.075 252.163C245.74 252.967 253.026 256.326 259.14 260.931C271.379 270.149 279.172 284.276 285.48 297.926C291.938 311.928 296.633 326.676 299.46 341.833C299.815 343.737 300.141 345.645 300.437 347.559C300.521 347.84 300.712 348.076 300.968 348.217C301.225 348.358 301.527 348.392 301.809 348.312C302.086 348.224 302.319 348.032 302.459 347.777C302.599 347.522 302.636 347.223 302.561 346.941C299.979 330.401 295.21 314.278 288.379 298.994C281.774 284.201 273.447 268.857 260.201 258.985C253.598 254.064 245.8 250.639 237.548 249.907C230.601 249.29 222.375 250.759 218.054 256.798C214.646 261.562 214.992 269.48 220.266 272.798C223.165 274.622 226.849 274.409 229.859 272.991C231.457 272.202 232.864 271.076 233.983 269.69C235.101 268.304 235.905 266.692 236.338 264.964C238.21 258.107 235.367 250.69 230.492 245.788C225.917 241.175 219.699 238.561 213.2 238.52C211.635 238.537 210.076 238.723 208.551 239.074C207.163 239.388 207.783 241.51 209.17 241.197Z" fill="#CCCCCC"/>
<path d="M265.904 376.991L258.593 364.515L267.608 359.238L274.918 371.713C275.619 372.908 275.815 374.332 275.465 375.672C275.115 377.011 274.247 378.157 273.051 378.857C271.856 379.557 270.431 379.753 269.091 379.403C267.75 379.053 266.604 378.185 265.904 376.991Z" fill="white"/>
<path d="M241.732 351.06C245.282 351.06 248.161 348.183 248.161 344.634C248.161 341.086 245.282 338.209 241.732 338.209C238.181 338.209 235.303 341.086 235.303 344.634C235.303 348.183 238.181 351.06 241.732 351.06Z" fill="white"/>
<path d="M294.19 376.991L286.879 364.515L295.893 359.238L303.204 371.713C303.902 372.908 304.098 374.331 303.747 375.669C303.397 377.008 302.529 378.153 301.334 378.852C300.14 379.551 298.716 379.748 297.376 379.399C296.037 379.05 294.891 378.184 294.19 376.991Z" fill="white"/>
<path d="M242.953 357.579C242.957 353.959 244.398 350.489 246.959 347.929C249.52 345.369 252.993 343.929 256.615 343.925H299.861C301.392 343.927 302.86 344.535 303.942 345.617C305.025 346.699 305.633 348.166 305.635 349.696V354.615C305.63 359.021 303.877 363.245 300.76 366.36C297.642 369.476 293.416 371.228 289.008 371.233H256.615C252.993 371.229 249.52 369.789 246.959 367.23C244.398 364.67 242.957 361.199 242.953 357.579Z" fill="#141111"/>
<path d="M252.926 378.599V364.142H263.373V378.599C263.373 379.984 262.823 381.312 261.843 382.291C260.864 383.27 259.535 383.82 258.15 383.82C256.764 383.82 255.436 383.27 254.456 382.291C253.477 381.312 252.926 379.984 252.926 378.599Z" fill="#141111"/>
<path d="M283.24 378.599V364.142H293.687V378.599C293.688 379.286 293.554 379.965 293.291 380.599C293.029 381.233 292.645 381.81 292.159 382.295C291.674 382.781 291.098 383.166 290.464 383.428C289.83 383.691 289.15 383.826 288.464 383.826C287.777 383.826 287.098 383.691 286.463 383.428C285.829 383.166 285.253 382.781 284.768 382.295C284.283 381.81 283.898 381.233 283.636 380.599C283.374 379.965 283.239 379.286 283.24 378.599Z" fill="#141111"/>
<path d="M325.745 321.4C326.814 320.075 328.365 319.228 330.058 319.045C331.751 318.862 333.448 319.358 334.775 320.424C336.103 321.489 336.953 323.038 337.14 324.73C337.326 326.421 336.834 328.118 335.77 329.447L325.203 342.598L315.178 334.55L325.745 321.4Z" fill="white"/>
<path d="M300.289 347.306L308.755 336.77C310.814 334.215 313.803 332.579 317.066 332.223C320.329 331.867 323.601 332.819 326.162 334.871L328.808 336.994C331.856 339.447 333.807 343.009 334.232 346.898C334.657 350.787 333.521 354.685 331.073 357.738L324.098 366.418C323.328 367.375 322.209 367.987 320.987 368.12C319.765 368.253 318.54 367.897 317.581 367.129L301.001 353.819C300.043 353.049 299.431 351.931 299.297 350.71C299.164 349.488 299.521 348.264 300.289 347.306Z" fill="#141111"/>
<path d="M327.003 319.834C327.366 319.382 327.815 319.005 328.324 318.726C328.833 318.448 329.392 318.272 329.969 318.209C330.546 318.146 331.13 318.197 331.687 318.359C332.244 318.522 332.764 318.793 333.217 319.156C333.669 319.519 334.046 319.968 334.325 320.477C334.604 320.985 334.78 321.544 334.843 322.121C334.906 322.697 334.854 323.281 334.692 323.838C334.529 324.395 334.258 324.914 333.895 325.366L322.069 340.083L315.177 334.55L327.003 319.834Z" fill="#141111"/>
<path d="M310.062 344.433L328.232 359.018C329.557 360.087 330.403 361.637 330.585 363.329C330.768 365.02 330.272 366.715 329.206 368.041C328.14 369.368 326.592 370.218 324.9 370.404C323.208 370.591 321.511 370.1 320.181 369.038L302.011 354.452L310.062 344.433Z" fill="#141111"/>
<path d="M329.997 368.527C330.935 367.36 331.169 365.992 330.52 365.471C329.871 364.95 328.585 365.474 327.647 366.641C326.709 367.809 326.475 369.177 327.124 369.698C327.772 370.219 329.059 369.695 329.997 368.527Z" fill="white"/>
<path d="M510.246 384.863H0.73735C0.541792 384.863 0.354244 384.786 0.215964 384.647C0.0776843 384.509 0 384.322 0 384.126C0 383.931 0.0776843 383.743 0.215964 383.605C0.354244 383.467 0.541792 383.389 0.73735 383.389H510.246C510.442 383.389 510.629 383.467 510.767 383.605C510.906 383.743 510.983 383.931 510.983 384.126C510.983 384.322 510.906 384.509 510.767 384.647C510.629 384.786 510.442 384.863 510.246 384.863Z" fill="#CCCCCC"/>
</g>
<defs>
<clipPath id="clip0_98_415">
<rect width="547" height="385" fill="white"/>
</clipPath>
</defs>
</svg>
